<?xml version="1.0" encoding="utf-8"?>
<svg viewBox="0 0 500 500" xmlns="http://www.w3.org/2000/svg">
  <path d="M 61.455 260.236 C 61.049 257.506 55.332 232.705 58.473 229.69 C 91.941 197.55 98.854 132.683 137.004 96.049 C 156.773 77.065 193.392 93.238 218.516 88.413 C 238.476 84.579 258.662 81.29 278.159 75.049 C 286.812 72.279 305.123 62.221 315.933 67.412 C 326.173 72.329 335.379 76.539 343.767 84.594 C 345.473 86.232 351.272 86.074 353.708 88.413 C 355.611 90.241 355.895 94.522 360.666 96.049 C 380.569 102.42 404.185 108.036 413.352 125.641 C 429.556 156.762 392.171 184.899 402.416 214.416 C 406.903 227.343 411.3 234.341 416.334 244.008 C 421.987 254.866 420.943 268.741 424.286 278.372 C 427.02 286.25 430.276 300.303 423.291 307.009 C 416.75 313.29 426.14 330.048 420.309 335.646 C 414.953 340.79 403.967 351.761 400.428 358.556 C 394.976 369.028 385.084 387.401 371.601 393.875 C 360.602 399.156 347.31 396.605 334.821 399.603 C 311.857 405.116 287.433 405.596 265.237 409.149 C 237.362 413.61 213.678 422.322 187.701 433.012 C 181.155 435.707 165.338 445.186 157.879 441.603 C 151.558 438.57 151.295 428.599 146.944 424.421 C 143.563 421.175 136.374 416.53 134.022 412.012 C 132.559 409.204 131.393 402.806 129.051 400.558 C 118.233 390.169 90.769 380.504 71.396 368.102 C 62.813 362.607 36.292 353.186 32.628 346.147 C 31.169 343.347 34.085 338.447 32.628 335.646 C 21.627 314.521 41.839 294.091 48.532 281.235 C 51.048 276.403 55.186 258.327 59.467 258.327" style="stroke: rgb(255, 255, 255); fill: rgb(210, 210, 169);"/>
  <circle style="fill: rgb(236, 99, 19);" cx="242.37" cy="251.346" r="68.717"/>
</svg>