<?xml version="1.0" standalone="no"?>
<!DOCTYPE svg PUBLIC "-//W3C//DTD SVG 20010904//EN"
 "http://www.w3.org/TR/2001/REC-SVG-20010904/DTD/svg10.dtd">
<svg version="1.0" xmlns="http://www.w3.org/2000/svg"
 width="268.000000pt" height="188.000000pt" viewBox="0 0 268.000000 188.000000"
 preserveAspectRatio="xMidYMid meet">

<g transform="translate(0.000000,188.000000) scale(0.100000,-0.100000)"
fill="#000000" stroke="none">
<path d="M1161 1600 c-120 -25 -191 -130 -191 -281 l0 -39 178 -2 c175 -3 177
-3 180 -25 l3 -23 -278 0 c-310 0 -325 -3 -390 -71 -57 -60 -63 -89 -63 -286
l0 -178 30 -52 c48 -84 125 -123 242 -123 l58 0 0 74 c0 131 52 221 158 273
55 27 64 28 252 33 211 6 226 9 284 67 58 57 66 90 66 288 l0 181 -32 54 c-25
39 -47 61 -88 84 -53 30 -57 30 -210 33 -85 1 -175 -2 -199 -7z m22 -122 c37
-44 2 -118 -56 -118 -32 0 -67 39 -67 75 0 67 78 94 123 43z"/>
</g>
</svg>
