<?xml version="1.0" standalone="no"?>
<!DOCTYPE svg PUBLIC "-//W3C//DTD SVG 20010904//EN"
 "http://www.w3.org/TR/2001/REC-SVG-20010904/DTD/svg10.dtd">
<svg version="1.0" xmlns="http://www.w3.org/2000/svg"
 width="310.000000pt" height="162.000000pt" viewBox="0 0 310.000000 162.000000"
 preserveAspectRatio="xMidYMid meet">

<g transform="translate(0.000000,162.000000) scale(0.100000,-0.100000)"
fill="#000000" stroke="none">
<path d="M1660 1236 c0 -94 3 -115 16 -120 8 -3 12 -2 9 4 -3 6 1 7 9 4 9 -3
14 -10 11 -14 -4 -7 127 -90 141 -90 3 0 28 -15 57 -33 29 -18 82 -50 118 -70
l66 -37 2 118 1 119 -52 28 c-29 16 -98 55 -152 87 -55 33 -105 57 -113 54 -8
-3 -11 -2 -8 4 6 9 -73 60 -93 60 -9 0 -12 -34 -12 -114z m370 -260 c0 -2 -7
-7 -16 -10 -8 -3 -12 -2 -9 4 6 10 25 14 25 6z m-45 -24 c-3 -3 -11 0 -18 7
-9 10 -8 11 6 5 10 -3 15 -9 12 -12z"/>
<path d="M800 992 c0 -101 3 -121 16 -126 9 -4 24 -1 33 6 14 11 14 11 3 -4
-7 -9 -9 -18 -5 -21 54 -33 86 -46 95 -41 6 4 8 3 5 -3 -3 -5 9 -17 28 -26
l35 -17 0 114 0 114 -72 44 c-40 24 -88 52 -105 61 l-33 18 0 -119z"/>
<path d="M1352 940 c-45 -26 -88 -53 -96 -59 -7 -6 -16 -8 -19 -4 -4 3 -7
-162 -7 -368 l0 -374 45 -27 c25 -15 51 -26 57 -24 7 1 9 1 5 -2 -9 -4 26 -31
75 -57 l27 -15 1 242 c0 133 2 244 5 246 2 2 30 -12 62 -31 32 -19 77 -44 99
-56 l42 -20 6 25 c4 14 6 65 5 113 l-1 88 -57 33 c-31 18 -79 47 -108 63 l-52
31 -3 121 -3 122 -83 -47z"/>
</g>
</svg>
